<mxfile host="app.diagrams.net" modified="2025-04-27T17:52:14.000Z" agent="Manus AI" etag="diagram-1" version="21.0.0" type="device">
  <diagram id="university_masters_app_diagram" name="University Masters App">
    <mxGraphModel dx="1422" dy="762" grid="1" gridSize="10" guides="1" tooltips="1" connect="1" arrows="1" fold="1" page="1" pageScale="1" pageWidth="827" pageHeight="1169" math="0" shadow="0">
      <root>
        <mxCell id="0" />
        <mxCell id="1" parent="0" />
        
        <!-- Users Class -->
        <mxCell id="users" value="users&#xa;--&#xa;+ id : int &lt;&lt;PK&gt;&gt;&#xa;+ email : varchar &lt;&lt;UNIQUE&gt;&gt;&#xa;+ role : enum&#xa;+ created_at : timestamp&#xa;+ name : varchar" style="swimlane;fontStyle=1;align=center;verticalAlign=top;childLayout=stackLayout;horizontal=1;startSize=110;horizontalStack=0;resizeParent=1;resizeParentMax=0;resizeLast=0;collapsible=1;marginBottom=0;whiteSpace=wrap;html=1;fillColor=#dae8fc;strokeColor=#6c8ebf;" parent="1" vertex="1">
          <mxGeometry x="320" y="40" width="240" height="110" as="geometry" />
        </mxCell>
        
        <!-- Students Class -->
        <mxCell id="students" value="students&#xa;--&#xa;+ id : int &lt;&lt;PK&gt;&gt;&#xa;+ user_id : int &lt;&lt;FK&gt;&gt; &lt;&lt;UNIQUE&gt;&gt;&#xa;+ first_year_mark : decimal&#xa;+ second_year_mark : decimal&#xa;+ third_year_mark : decimal&#xa;+ calculated_score : decimal&#xa;+ speciality : varchar&#xa;+ transcript_pdf : varchar" style="swimlane;fontStyle=1;align=center;verticalAlign=top;childLayout=stackLayout;horizontal=1;startSize=180;horizontalStack=0;resizeParent=1;resizeParentMax=0;resizeLast=0;collapsible=1;marginBottom=0;whiteSpace=wrap;html=1;fillColor=#d5e8d4;strokeColor=#82b366;" parent="1" vertex="1">
          <mxGeometry x="40" y="200" width="240" height="180" as="geometry" />
        </mxCell>
        
        <!-- Masters Class -->
        <mxCell id="masters" value="masters&#xa;--&#xa;+ id : int &lt;&lt;PK&gt;&gt;&#xa;+ university_id : int &lt;&lt;FK&gt;&gt;&#xa;+ name : varchar&#xa;+ description : text&#xa;+ max_students : int&#xa;+ created_at : timestamp&#xa;+ application_start_date : date&#xa;+ application_end_date : date" style="swimlane;fontStyle=1;align=center;verticalAlign=top;childLayout=stackLayout;horizontal=1;startSize=180;horizontalStack=0;resizeParent=1;resizeParentMax=0;resizeLast=0;collapsible=1;marginBottom=0;whiteSpace=wrap;html=1;fillColor=#ffe6cc;strokeColor=#d79b00;" parent="1" vertex="1">
          <mxGeometry x="600" y="200" width="240" height="180" as="geometry" />
        </mxCell>
        
        <!-- Applications Class -->
        <mxCell id="applications" value="applications&#xa;--&#xa;+ id : int &lt;&lt;PK&gt;&gt;&#xa;+ student_id : int &lt;&lt;FK&gt;&gt;&#xa;+ master_id : int &lt;&lt;FK&gt;&gt;&#xa;+ status : enum&#xa;+ application_date : timestamp" style="swimlane;fontStyle=1;align=center;verticalAlign=top;childLayout=stackLayout;horizontal=1;startSize=120;horizontalStack=0;resizeParent=1;resizeParentMax=0;resizeLast=0;collapsible=1;marginBottom=0;whiteSpace=wrap;html=1;fillColor=#fff2cc;strokeColor=#d6b656;" parent="1" vertex="1">
          <mxGeometry x="320" y="440" width="240" height="120" as="geometry" />
        </mxCell>
        
        <!-- Feedback Class -->
        <mxCell id="feedback" value="feedback&#xa;--&#xa;+ id : int &lt;&lt;PK&gt;&gt;&#xa;+ user_id : int &lt;&lt;FK&gt;&gt;&#xa;+ subject : varchar&#xa;+ message : text&#xa;+ rating : int&#xa;+ created_at : timestamp" style="swimlane;fontStyle=1;align=center;verticalAlign=top;childLayout=stackLayout;horizontal=1;startSize=150;horizontalStack=0;resizeParent=1;resizeParentMax=0;resizeLast=0;collapsible=1;marginBottom=0;whiteSpace=wrap;html=1;fillColor=#f8cecc;strokeColor=#b85450;" parent="1" vertex="1">
          <mxGeometry x="40" y="440" width="240" height="150" as="geometry" />
        </mxCell>
        
        <!-- Master Specialities Class -->
        <mxCell id="master_specialities" value="master_specialities&#xa;--&#xa;+ id : int &lt;&lt;PK&gt;&gt;&#xa;+ master_id : int &lt;&lt;FK&gt;&gt;&#xa;+ speciality : varchar&#xa;+ created_at : timestamp" style="swimlane;fontStyle=1;align=center;verticalAlign=top;childLayout=stackLayout;horizontal=1;startSize=110;horizontalStack=0;resizeParent=1;resizeParentMax=0;resizeLast=0;collapsible=1;marginBottom=0;whiteSpace=wrap;html=1;fillColor=#e1d5e7;strokeColor=#9673a6;" parent="1" vertex="1">
          <mxGeometry x="600" y="440" width="240" height="110" as="geometry" />
        </mxCell>
        
        <!-- Relationships -->
        <!-- Users to Students (1:0..1) -->
        <mxCell id="users_students" value="" style="endArrow=diamondThin;endFill=1;endSize=12;html=1;rounded=0;exitX=0.5;exitY=1;exitDx=0;exitDy=0;entryX=0.5;entryY=0;entryDx=0;entryDy=0;" edge="1" parent="1" source="users" target="students">
          <mxGeometry width="160" relative="1" as="geometry">
            <mxPoint x="330" y="390" as="sourcePoint" />
            <mxPoint x="490" y="390" as="targetPoint" />
            <Array as="points">
              <mxPoint x="440" y="180" />
              <mxPoint x="160" y="180" />
            </Array>
          </mxGeometry>
        </mxCell>
        <mxCell id="users_students_label" value="1" style="edgeLabel;html=1;align=center;verticalAlign=middle;resizable=0;points=[];" vertex="1" connectable="0" parent="users_students">
          <mxGeometry x="-0.8" y="1" relative="1" as="geometry">
            <mxPoint as="offset" />
          </mxGeometry>
        </mxCell>
        <mxCell id="users_students_label2" value="0..1" style="edgeLabel;html=1;align=center;verticalAlign=middle;resizable=0;points=[];" vertex="1" connectable="0" parent="users_students">
          <mxGeometry x="0.8" y="1" relative="1" as="geometry">
            <mxPoint as="offset" />
          </mxGeometry>
        </mxCell>
        
        <!-- Users to Masters (1:0..*) -->
        <mxCell id="users_masters" value="" style="endArrow=open;html=1;endSize=12;startArrow=diamondThin;startSize=14;startFill=0;edgeStyle=orthogonalEdgeStyle;rounded=0;exitX=0.5;exitY=1;exitDx=0;exitDy=0;entryX=0.5;entryY=0;entryDx=0;entryDy=0;" edge="1" parent="1" source="users" target="masters">
          <mxGeometry relative="1" as="geometry">
            <mxPoint x="330" y="390" as="sourcePoint" />
            <mxPoint x="490" y="390" as="targetPoint" />
            <Array as="points">
              <mxPoint x="440" y="180" />
              <mxPoint x="720" y="180" />
            </Array>
          </mxGeometry>
        </mxCell>
        <mxCell id="users_masters_label" value="1" style="edgeLabel;html=1;align=center;verticalAlign=middle;resizable=0;points=[];" vertex="1" connectable="0" parent="users_masters">
          <mxGeometry x="-0.8" y="1" relative="1" as="geometry">
            <mxPoint as="offset" />
          </mxGeometry>
        </mxCell>
        <mxCell id="users_masters_label2" value="0..*" style="edgeLabel;html=1;align=center;verticalAlign=middle;resizable=0;points=[];" vertex="1" connectable="0" parent="users_masters">
          <mxGeometry x="0.8" y="1" relative="1" as="geometry">
            <mxPoint as="offset" />
          </mxGeometry>
        </mxCell>
        
        <!-- Users to Feedback (1:0..*) -->
        <mxCell id="users_feedback" value="" style="endArrow=open;html=1;endSize=12;startArrow=diamondThin;startSize=14;startFill=0;edgeStyle=orthogonalEdgeStyle;rounded=0;exitX=0;exitY=0.5;exitDx=0;exitDy=0;entryX=0;entryY=0.5;entryDx=0;entryDy=0;" edge="1" parent="1" source="users" target="feedback">
          <mxGeometry relative="1" as="geometry">
            <mxPoint x="330" y="390" as="sourcePoint" />
            <mxPoint x="490" y="390" as="targetPoint" />
            <Array as="points">
              <mxPoint x="20" y="95" />
              <mxPoint x="20" y="515" />
            </Array>
          </mxGeometry>
        </mxCell>
        <mxCell id="users_feedback_label" value="1" style="edgeLabel;html=1;align=center;verticalAlign=middle;resizable=0;points=[];" vertex="1" connectable="0" parent="users_feedback">
          <mxGeometry x="-0.9" y="-1" relative="1" as="geometry">
            <mxPoint as="offset" />
          </mxGeometry>
        </mxCell>
        <mxCell id="users_feedback_label2" value="0..*" style="edgeLabel;html=1;align=center;verticalAlign=middle;resizable=0;points=[];" vertex="1" connectable="0" parent="users_feedback">
          <mxGeometry x="0.9" y="-1" relative="1" as="geometry">
            <mxPoint as="offset" />
          </mxGeometry>
        </mxCell>
        
        <!-- Students to Applications (1:0..*) -->
        <mxCell id="students_applications" value="" style="endArrow=open;html=1;endSize=12;startArrow=diamondThin;startSize=14;startFill=0;edgeStyle=orthogonalEdgeStyle;rounded=0;exitX=0.5;exitY=1;exitDx=0;exitDy=0;entryX=0;entryY=0.5;entryDx=0;entryDy=0;" edge="1" parent="1" source="students" target="applications">
          <mxGeometry relative="1" as="geometry">
            <mxPoint x="330" y="390" as="sourcePoint" />
            <mxPoint x="490" y="390" as="targetPoint" />
            <Array as="points">
              <mxPoint x="160" y="400" />
              <mxPoint x="300" y="400" />
              <mxPoint x="300" y="500" />
            </Array>
          </mxGeometry>
        </mxCell>
        <mxCell id="students_applications_label" value="1" style="edgeLabel;html=1;align=center;verticalAlign=middle;resizable=0;points=[];" vertex="1" connectable="0" parent="students_applications">
          <mxGeometry x="-0.8" y="1" relative="1" as="geometry">
            <mxPoint as="offset" />
          </mxGeometry>
        </mxCell>
        <mxCell id="students_applications_label2" value="0..*" style="edgeLabel;html=1;align=center;verticalAlign=middle;resizable=0;points=[];" vertex="1" connectable="0" parent="students_applications">
          <mxGeometry x="0.8" y="1" relative="1" as="geometry">
            <mxPoint as="offset" />
          </mxGeometry>
        </mxCell>
        
        <!-- Masters to Applications (1:0..*) -->
        <mxCell id="masters_applications" value="" style="endArrow=open;html=1;endSize=12;startArrow=diamondThin;startSize=14;startFill=0;edgeStyle=orthogonalEdgeStyle;rounded=0;exitX=0.5;exitY=1;exitDx=0;exitDy=0;entryX=1;entryY=0.5;entryDx=0;entryDy=0;" edge="1" parent="1" source="masters" target="applications">
          <mxGeometry relative="1" as="geometry">
            <mxPoint x="330" y="390" as="sourcePoint" />
            <mxPoint x="490" y="390" as="targetPoint" />
            <Array as="points">
              <mxPoint x="720" y="400" />
              <mxPoint x="580" y="400" />
              <mxPoint x="580" y="500" />
            </Array>
          </mxGeometry>
        </mxCell>
        <mxCell id="masters_applications_label" value="1" style="edgeLabel;html=1;align=center;verticalAlign=middle;resizable=0;points=[];" vertex="1" connectable="0" parent="masters_applications">
          <mxGeometry x="-0.8" y="1" relative="1" as="geometry">
            <mxPoint as="offset" />
          </mxGeometry>
        </mxCell>
        <mxCell id="masters_applications_label2" value="0..*" style="edgeLabel;html=1;align=center;verticalAlign=middle;resizable=0;points=[];" vertex="1" connectable="0" parent="masters_applications">
          <mxGeometry x="0.8" y="1" relative="1" as="geometry">
            <mxPoint as="offset" />
          </mxGeometry>
        </mxCell>
        
        <!-- Masters to Master Specialities (1:0..*) -->
        <mxCell id="masters_specialities" value="" style="endArrow=open;html=1;endSize=12;startArrow=diamondThin;startSize=14;startFill=0;edgeStyle=orthogonalEdgeStyle;rounded=0;exitX=1;exitY=0.5;exitDx=0;exitDy=0;entryX=1;entryY=0.5;entryDx=0;entryDy=0;" edge="1" parent="1" source="masters" target="master_specialities">
          <mxGeometry relative="1" as="geometry">
            <mxPoint x="330" y="390" as="sourcePoint" />
            <mxPoint x="490" y="390" as="targetPoint" />
            <Array as="points">
              <mxPoint x="860" y="290" />
              <mxPoint x="860" y="495" />
            </Array>
          </mxGeometry>
        </mxCell>
        <mxCell id="masters_specialities_label" value="1" style="edgeLabel;html=1;align=center;verticalAlign=middle;resizable=0;points=[];" vertex="1" connectable="0" parent="masters_specialities">
          <mxGeometry x="-0.9" y="-1" relative="1" as="geometry">
            <mxPoint as="offset" />
          </mxGeometry>
        </mxCell>
        <mxCell id="masters_specialities_label2" value="0..*" style="edgeLabel;html=1;align=center;verticalAlign=middle;resizable=0;points=[];" vertex="1" connectable="0" parent="masters_specialities">
          <mxGeometry x="0.9" y="-1" relative="1" as="geometry">
            <mxPoint as="offset" />
          </mxGeometry>
        </mxCell>
        
      </root>
    </mxGraphModel>
  </diagram>
</mxfile>
